<mxfile host="drawio-plugin" modified="2023-12-19T07:56:46.503Z" agent="5.0 (Macintosh; Intel Mac OS X 10_15_7) AppleWebKit/537.36 (KHTML, like Gecko) Chrome/104.0.5112.102 Safari/537.36" etag="fyFIN_1HqCMmaOgO8Y9V" version="20.5.3" type="embed"><diagram name="Page-1" id="sqjibDyvCSoYrN6cyTP3"><mxGraphModel dx="926" dy="731" grid="1" gridSize="10" guides="1" tooltips="1" connect="1" arrows="1" fold="1" page="1" pageScale="1" pageWidth="850" pageHeight="1100" math="0" shadow="0"><root><mxCell id="0"/><mxCell id="1" parent="0"/><mxCell id="Jl6ezpnLRALdIs5fdPDW-1" value="User" style="swimlane;childLayout=stackLayout;horizontal=1;startSize=50;horizontalStack=0;rounded=1;fontSize=14;fontStyle=0;strokeWidth=2;resizeParent=0;resizeLast=1;shadow=0;dashed=0;align=center;arcSize=4;whiteSpace=wrap;html=1;" parent="1" vertex="1"><mxGeometry x="30" y="40" width="90" height="200" as="geometry"/></mxCell><mxCell id="Jl6ezpnLRALdIs5fdPDW-2" value="firstName&lt;br&gt;lastName&lt;br&gt;email&lt;br&gt;phone&lt;br&gt;password&lt;br&gt;interests&lt;br&gt;location&lt;br&gt;address&lt;br&gt;verified" style="align=left;strokeColor=none;fillColor=none;spacingLeft=4;fontSize=12;verticalAlign=top;resizable=0;rotatable=0;part=1;html=1;" parent="Jl6ezpnLRALdIs5fdPDW-1" vertex="1"><mxGeometry y="50" width="90" height="150" as="geometry"/></mxCell><mxCell id="Jl6ezpnLRALdIs5fdPDW-8" value="Staff" style="swimlane;childLayout=stackLayout;horizontal=1;startSize=50;horizontalStack=0;rounded=1;fontSize=14;fontStyle=0;strokeWidth=2;resizeParent=0;resizeLast=1;shadow=0;dashed=0;align=center;arcSize=4;whiteSpace=wrap;html=1;" parent="1" vertex="1"><mxGeometry x="240" y="680" width="80" height="120" as="geometry"/></mxCell><mxCell id="Jl6ezpnLRALdIs5fdPDW-9" value="firstName&lt;br&gt;lastName&lt;br&gt;email&lt;br&gt;password" style="align=left;strokeColor=none;fillColor=none;spacingLeft=4;fontSize=12;verticalAlign=top;resizable=0;rotatable=0;part=1;html=1;" parent="Jl6ezpnLRALdIs5fdPDW-8" vertex="1"><mxGeometry y="50" width="80" height="70" as="geometry"/></mxCell><mxCell id="Jl6ezpnLRALdIs5fdPDW-10" value="Cinema" style="swimlane;childLayout=stackLayout;horizontal=1;startSize=50;horizontalStack=0;rounded=1;fontSize=14;fontStyle=0;strokeWidth=2;resizeParent=0;resizeLast=1;shadow=0;dashed=0;align=center;arcSize=4;whiteSpace=wrap;html=1;" parent="1" vertex="1"><mxGeometry x="30" y="670" width="140" height="230" as="geometry"/></mxCell><mxCell id="Jl6ezpnLRALdIs5fdPDW-11" value="name (string)&lt;br&gt;email (string)&lt;br&gt;phone (string)&lt;br&gt;about (string)&lt;br&gt;profile_image (string)&lt;br&gt;images (List&amp;lt;string)&amp;gt;&lt;br&gt;location (List&amp;lt;double&amp;gt;)&lt;br&gt;country (string)&lt;br&gt;state (string)&lt;br&gt;city (string)&lt;br&gt;address (string)" style="align=left;strokeColor=none;fillColor=none;spacingLeft=4;fontSize=12;verticalAlign=top;resizable=0;rotatable=0;part=1;html=1;" parent="Jl6ezpnLRALdIs5fdPDW-10" vertex="1"><mxGeometry y="50" width="140" height="180" as="geometry"/></mxCell><mxCell id="Jl6ezpnLRALdIs5fdPDW-12" value="Role" style="swimlane;childLayout=stackLayout;horizontal=1;startSize=50;horizontalStack=0;rounded=1;fontSize=14;fontStyle=0;strokeWidth=2;resizeParent=0;resizeLast=1;shadow=0;dashed=0;align=center;arcSize=4;whiteSpace=wrap;html=1;" parent="1" vertex="1"><mxGeometry x="500" y="640" width="140" height="100" as="geometry"/></mxCell><mxCell id="Jl6ezpnLRALdIs5fdPDW-13" value="name (string)&lt;br&gt;permissions (string)" style="align=left;strokeColor=none;fillColor=none;spacingLeft=4;fontSize=12;verticalAlign=top;resizable=0;rotatable=0;part=1;html=1;" parent="Jl6ezpnLRALdIs5fdPDW-12" vertex="1"><mxGeometry y="50" width="140" height="140" as="geometry"/></mxCell><mxCell id="Jl6ezpnLRALdIs5fdPDW-14" value="" style="whiteSpace=wrap;html=1;fontSize=14;fontStyle=0;startSize=50;rounded=1;strokeWidth=2;shadow=0;dashed=0;arcSize=4;" parent="Jl6ezpnLRALdIs5fdPDW-12" vertex="1"><mxGeometry y="190" width="140" height="-90" as="geometry"/></mxCell><mxCell id="Jl6ezpnLRALdIs5fdPDW-20" value="" style="edgeStyle=entityRelationEdgeStyle;fontSize=12;html=1;endArrow=ERmandOne;rounded=0;entryX=-0.001;entryY=0.136;entryDx=0;entryDy=0;entryPerimeter=0;" parent="1" source="Jl6ezpnLRALdIs5fdPDW-9" target="Jl6ezpnLRALdIs5fdPDW-12" edge="1"><mxGeometry width="100" height="100" relative="1" as="geometry"><mxPoint x="370" y="815" as="sourcePoint"/><mxPoint x="493" y="720" as="targetPoint"/></mxGeometry></mxCell><mxCell id="Jl6ezpnLRALdIs5fdPDW-24" value="staffRole" style="swimlane;childLayout=stackLayout;horizontal=1;startSize=50;horizontalStack=0;rounded=1;fontSize=14;fontStyle=0;strokeWidth=2;resizeParent=0;resizeLast=1;shadow=0;dashed=0;align=center;arcSize=4;whiteSpace=wrap;html=1;" parent="1" vertex="1"><mxGeometry x="412" y="900" width="138" height="130" as="geometry"/></mxCell><mxCell id="Jl6ezpnLRALdIs5fdPDW-25" value="id&lt;br&gt;Role&lt;br&gt;Staff&lt;br&gt;time (datetime)" style="align=left;strokeColor=none;fillColor=none;spacingLeft=4;fontSize=12;verticalAlign=top;resizable=0;rotatable=0;part=1;html=1;" parent="Jl6ezpnLRALdIs5fdPDW-24" vertex="1"><mxGeometry y="50" width="138" height="140" as="geometry"/></mxCell><mxCell id="Jl6ezpnLRALdIs5fdPDW-26" value="" style="whiteSpace=wrap;html=1;fontSize=14;fontStyle=0;startSize=50;rounded=1;strokeWidth=2;shadow=0;dashed=0;arcSize=4;" parent="Jl6ezpnLRALdIs5fdPDW-24" vertex="1"><mxGeometry y="190" width="138" height="-60" as="geometry"/></mxCell><mxCell id="Jl6ezpnLRALdIs5fdPDW-27" value="Movie" style="swimlane;childLayout=stackLayout;horizontal=1;startSize=50;horizontalStack=0;rounded=1;fontSize=14;fontStyle=0;strokeWidth=2;resizeParent=0;resizeLast=1;shadow=0;dashed=0;align=center;arcSize=4;whiteSpace=wrap;html=1;" parent="1" vertex="1"><mxGeometry x="30" y="370" width="140" height="120" as="geometry"/></mxCell><mxCell id="Jl6ezpnLRALdIs5fdPDW-28" value="id (number)&lt;br&gt;tmdbID (string)&lt;br&gt;favorites" style="align=left;strokeColor=none;fillColor=none;spacingLeft=4;fontSize=12;verticalAlign=top;resizable=0;rotatable=0;part=1;html=1;" parent="Jl6ezpnLRALdIs5fdPDW-27" vertex="1"><mxGeometry y="50" width="140" height="70" as="geometry"/></mxCell><mxCell id="Jl6ezpnLRALdIs5fdPDW-29" value="" style="edgeStyle=entityRelationEdgeStyle;fontSize=12;html=1;endArrow=ERoneToMany;startArrow=ERzeroToOne;rounded=0;" parent="1" source="Jl6ezpnLRALdIs5fdPDW-10" target="Jl6ezpnLRALdIs5fdPDW-28" edge="1"><mxGeometry width="100" height="100" relative="1" as="geometry"><mxPoint x="90" y="670" as="sourcePoint"/><mxPoint x="190" y="570" as="targetPoint"/></mxGeometry></mxCell><mxCell id="Jl6ezpnLRALdIs5fdPDW-30" value="moviePrice" style="swimlane;childLayout=stackLayout;horizontal=1;startSize=50;horizontalStack=0;rounded=1;fontSize=14;fontStyle=0;strokeWidth=2;resizeParent=0;resizeLast=1;shadow=0;dashed=0;align=center;arcSize=4;whiteSpace=wrap;html=1;" parent="1" vertex="1"><mxGeometry x="320" y="400" width="140" height="140" as="geometry"/></mxCell><mxCell id="Jl6ezpnLRALdIs5fdPDW-31" value="id&lt;br&gt;amount&lt;br&gt;cinema&lt;br&gt;movie&lt;br&gt;timeslot&lt;br&gt;" style="align=left;strokeColor=none;fillColor=none;spacingLeft=4;fontSize=12;verticalAlign=top;resizable=0;rotatable=0;part=1;html=1;" parent="Jl6ezpnLRALdIs5fdPDW-30" vertex="1"><mxGeometry y="50" width="140" height="90" as="geometry"/></mxCell><mxCell id="Jl6ezpnLRALdIs5fdPDW-32" value="" style="edgeStyle=entityRelationEdgeStyle;fontSize=12;html=1;endArrow=ERoneToMany;startArrow=ERmandOne;rounded=0;exitX=0.981;exitY=0.163;exitDx=0;exitDy=0;exitPerimeter=0;entryX=-0.007;entryY=0.149;entryDx=0;entryDy=0;entryPerimeter=0;" parent="1" source="Jl6ezpnLRALdIs5fdPDW-28" target="Jl6ezpnLRALdIs5fdPDW-30" edge="1"><mxGeometry width="100" height="100" relative="1" as="geometry"><mxPoint x="380" y="700" as="sourcePoint"/><mxPoint x="480" y="600" as="targetPoint"/></mxGeometry></mxCell><mxCell id="Jl6ezpnLRALdIs5fdPDW-33" value="" style="edgeStyle=entityRelationEdgeStyle;fontSize=12;html=1;endArrow=ERzeroToMany;startArrow=ERmandOne;rounded=0;exitX=1.027;exitY=0.154;exitDx=0;exitDy=0;exitPerimeter=0;entryX=-0.001;entryY=0.163;entryDx=0;entryDy=0;entryPerimeter=0;" parent="1" source="Jl6ezpnLRALdIs5fdPDW-10" target="Jl6ezpnLRALdIs5fdPDW-30" edge="1"><mxGeometry width="100" height="100" relative="1" as="geometry"><mxPoint x="380" y="700" as="sourcePoint"/><mxPoint x="480" y="600" as="targetPoint"/></mxGeometry></mxCell><mxCell id="Jl6ezpnLRALdIs5fdPDW-34" value="" style="edgeStyle=entityRelationEdgeStyle;fontSize=12;html=1;endArrow=ERmandOne;startArrow=ERmandOne;rounded=0;entryX=1.01;entryY=0.539;entryDx=0;entryDy=0;entryPerimeter=0;exitX=-0.001;exitY=0.307;exitDx=0;exitDy=0;exitPerimeter=0;" parent="1" source="Jl6ezpnLRALdIs5fdPDW-25" target="Jl6ezpnLRALdIs5fdPDW-9" edge="1"><mxGeometry width="100" height="100" relative="1" as="geometry"><mxPoint x="380" y="900" as="sourcePoint"/><mxPoint x="480" y="800" as="targetPoint"/></mxGeometry></mxCell><mxCell id="Jl6ezpnLRALdIs5fdPDW-37" value="" style="edgeStyle=entityRelationEdgeStyle;fontSize=12;html=1;endArrow=ERoneToMany;startArrow=ERzeroToOne;rounded=0;exitX=1.005;exitY=0.215;exitDx=0;exitDy=0;exitPerimeter=0;entryX=1.003;entryY=0.353;entryDx=0;entryDy=0;entryPerimeter=0;" parent="1" source="Jl6ezpnLRALdIs5fdPDW-12" target="Jl6ezpnLRALdIs5fdPDW-25" edge="1"><mxGeometry width="100" height="100" relative="1" as="geometry"><mxPoint x="553.8199999999999" y="940.02" as="sourcePoint"/><mxPoint x="630" y="840" as="targetPoint"/></mxGeometry></mxCell><mxCell id="2" value="Genres" style="swimlane;childLayout=stackLayout;horizontal=1;startSize=50;horizontalStack=0;rounded=1;fontSize=14;fontStyle=0;strokeWidth=2;resizeParent=0;resizeLast=1;shadow=0;dashed=0;align=center;arcSize=4;whiteSpace=wrap;html=1;" vertex="1" parent="1"><mxGeometry x="520" y="20" width="110" height="110" as="geometry"/></mxCell><mxCell id="3" value="id&lt;br&gt;tmdbId&lt;br&gt;name" style="align=left;strokeColor=none;fillColor=none;spacingLeft=4;fontSize=12;verticalAlign=top;resizable=0;rotatable=0;part=1;html=1;" vertex="1" parent="2"><mxGeometry y="50" width="110" height="60" as="geometry"/></mxCell><mxCell id="4" value="" style="edgeStyle=entityRelationEdgeStyle;fontSize=12;html=1;endArrow=ERmany;rounded=0;exitX=1;exitY=0.75;exitDx=0;exitDy=0;entryX=-0.007;entryY=0.158;entryDx=0;entryDy=0;entryPerimeter=0;" edge="1" parent="1" source="Jl6ezpnLRALdIs5fdPDW-2" target="2"><mxGeometry width="100" height="100" relative="1" as="geometry"><mxPoint x="330" y="270" as="sourcePoint"/><mxPoint x="430" y="170" as="targetPoint"/></mxGeometry></mxCell><mxCell id="7" value="" style="edgeStyle=entityRelationEdgeStyle;fontSize=12;html=1;endArrow=ERmany;rounded=0;entryX=1.021;entryY=0.157;entryDx=0;entryDy=0;entryPerimeter=0;" edge="1" parent="1" source="Jl6ezpnLRALdIs5fdPDW-2" target="Jl6ezpnLRALdIs5fdPDW-27"><mxGeometry width="100" height="100" relative="1" as="geometry"><mxPoint x="330" y="490" as="sourcePoint"/><mxPoint x="430" y="390" as="targetPoint"/></mxGeometry></mxCell><mxCell id="8" value="snacks" style="swimlane;childLayout=stackLayout;horizontal=1;startSize=50;horizontalStack=0;rounded=1;fontSize=14;fontStyle=0;strokeWidth=2;resizeParent=0;resizeLast=1;shadow=0;dashed=0;align=center;arcSize=4;whiteSpace=wrap;html=1;" vertex="1" parent="1"><mxGeometry x="220" y="850" width="130" height="130" as="geometry"/></mxCell><mxCell id="9" value="id&lt;br&gt;available&lt;br&gt;name&lt;br&gt;price" style="align=left;strokeColor=none;fillColor=none;spacingLeft=4;fontSize=12;verticalAlign=top;resizable=0;rotatable=0;part=1;html=1;" vertex="1" parent="8"><mxGeometry y="50" width="130" height="80" as="geometry"/></mxCell><mxCell id="10" value="" style="edgeStyle=entityRelationEdgeStyle;fontSize=12;html=1;endArrow=ERmany;rounded=0;exitX=1;exitY=0.5;exitDx=0;exitDy=0;entryX=0;entryY=0.25;entryDx=0;entryDy=0;" edge="1" parent="1" source="Jl6ezpnLRALdIs5fdPDW-11" target="8"><mxGeometry width="100" height="100" relative="1" as="geometry"><mxPoint x="270" y="940" as="sourcePoint"/><mxPoint x="370" y="840" as="targetPoint"/></mxGeometry></mxCell><mxCell id="11" value="snackcategories" style="swimlane;childLayout=stackLayout;horizontal=1;startSize=50;horizontalStack=0;rounded=1;fontSize=14;fontStyle=0;strokeWidth=2;resizeParent=0;resizeLast=1;shadow=0;dashed=0;align=center;arcSize=4;whiteSpace=wrap;html=1;" vertex="1" parent="1"><mxGeometry x="35" y="940" width="130" height="130" as="geometry"/></mxCell><mxCell id="12" value="id&lt;br&gt;name" style="align=left;strokeColor=none;fillColor=none;spacingLeft=4;fontSize=12;verticalAlign=top;resizable=0;rotatable=0;part=1;html=1;" vertex="1" parent="11"><mxGeometry y="50" width="130" height="80" as="geometry"/></mxCell><mxCell id="14" value="" style="edgeStyle=entityRelationEdgeStyle;fontSize=12;html=1;endArrow=ERmany;rounded=0;exitX=1;exitY=0.25;exitDx=0;exitDy=0;entryX=-0.015;entryY=0.346;entryDx=0;entryDy=0;entryPerimeter=0;" edge="1" parent="1" source="11" target="8"><mxGeometry width="100" height="100" relative="1" as="geometry"><mxPoint x="270" y="940" as="sourcePoint"/><mxPoint x="370" y="840" as="targetPoint"/></mxGeometry></mxCell><mxCell id="15" value="Orders" style="swimlane;childLayout=stackLayout;horizontal=1;startSize=50;horizontalStack=0;rounded=1;fontSize=14;fontStyle=0;strokeWidth=2;resizeParent=0;resizeLast=1;shadow=0;dashed=0;align=center;arcSize=4;whiteSpace=wrap;html=1;" vertex="1" parent="1"><mxGeometry x="490" y="190" width="110" height="110" as="geometry"/></mxCell><mxCell id="16" value="id&lt;br&gt;total_amount" style="align=left;strokeColor=none;fillColor=none;spacingLeft=4;fontSize=12;verticalAlign=top;resizable=0;rotatable=0;part=1;html=1;" vertex="1" parent="15"><mxGeometry y="50" width="110" height="60" as="geometry"/></mxCell><mxCell id="17" value="Tickets" style="swimlane;childLayout=stackLayout;horizontal=1;startSize=50;horizontalStack=0;rounded=1;fontSize=14;fontStyle=0;strokeWidth=2;resizeParent=0;resizeLast=1;shadow=0;dashed=0;align=center;arcSize=4;whiteSpace=wrap;html=1;" vertex="1" parent="1"><mxGeometry x="680" y="280" width="110" height="110" as="geometry"/></mxCell><mxCell id="18" value="id&lt;br&gt;tmdbId&lt;br&gt;name" style="align=left;strokeColor=none;fillColor=none;spacingLeft=4;fontSize=12;verticalAlign=top;resizable=0;rotatable=0;part=1;html=1;" vertex="1" parent="17"><mxGeometry y="50" width="110" height="60" as="geometry"/></mxCell><mxCell id="19" value="" style="edgeStyle=entityRelationEdgeStyle;fontSize=12;html=1;endArrow=ERmany;rounded=0;exitX=1;exitY=0.25;exitDx=0;exitDy=0;entryX=-0.042;entryY=0.406;entryDx=0;entryDy=0;entryPerimeter=0;" edge="1" parent="1" source="Jl6ezpnLRALdIs5fdPDW-1" target="15"><mxGeometry width="100" height="100" relative="1" as="geometry"><mxPoint x="380" y="500" as="sourcePoint"/><mxPoint x="480" y="400" as="targetPoint"/></mxGeometry></mxCell><mxCell id="20" value="" style="edgeStyle=entityRelationEdgeStyle;fontSize=12;html=1;endArrow=ERzeroToMany;startArrow=ERmandOne;rounded=0;exitX=1;exitY=0.25;exitDx=0;exitDy=0;entryX=0;entryY=0.25;entryDx=0;entryDy=0;" edge="1" parent="1" source="15" target="17"><mxGeometry width="100" height="100" relative="1" as="geometry"><mxPoint x="380" y="500" as="sourcePoint"/><mxPoint x="480" y="400" as="targetPoint"/></mxGeometry></mxCell><mxCell id="21" value="" style="edgeStyle=entityRelationEdgeStyle;fontSize=12;html=1;endArrow=ERmandOne;startArrow=ERmandOne;rounded=0;entryX=0;entryY=0.5;entryDx=0;entryDy=0;exitX=1;exitY=0.107;exitDx=0;exitDy=0;exitPerimeter=0;" edge="1" parent="1" source="Jl6ezpnLRALdIs5fdPDW-27" target="17"><mxGeometry width="100" height="100" relative="1" as="geometry"><mxPoint x="380" y="560" as="sourcePoint"/><mxPoint x="480" y="460" as="targetPoint"/></mxGeometry></mxCell><mxCell id="23" value="" style="edgeStyle=entityRelationEdgeStyle;fontSize=12;html=1;endArrow=ERmany;rounded=0;exitX=1;exitY=0.25;exitDx=0;exitDy=0;entryX=0;entryY=0.25;entryDx=0;entryDy=0;" edge="1" parent="1" source="Jl6ezpnLRALdIs5fdPDW-10" target="15"><mxGeometry width="100" height="100" relative="1" as="geometry"><mxPoint x="380" y="610" as="sourcePoint"/><mxPoint x="480" y="510" as="targetPoint"/></mxGeometry></mxCell><mxCell id="25" value="Transactions" style="swimlane;childLayout=stackLayout;horizontal=1;startSize=50;horizontalStack=0;rounded=1;fontSize=14;fontStyle=0;strokeWidth=2;resizeParent=0;resizeLast=1;shadow=0;dashed=0;align=center;arcSize=4;whiteSpace=wrap;html=1;" vertex="1" parent="1"><mxGeometry x="550" y="420" width="110" height="110" as="geometry"/></mxCell><mxCell id="26" value="id&lt;br&gt;tmdbId&lt;br&gt;name" style="align=left;strokeColor=none;fillColor=none;spacingLeft=4;fontSize=12;verticalAlign=top;resizable=0;rotatable=0;part=1;html=1;" vertex="1" parent="25"><mxGeometry y="50" width="110" height="60" as="geometry"/></mxCell><mxCell id="27" value="" style="edgeStyle=entityRelationEdgeStyle;fontSize=12;html=1;endArrow=ERmany;startArrow=ERmany;rounded=0;entryX=-0.03;entryY=0.352;entryDx=0;entryDy=0;entryPerimeter=0;exitX=1;exitY=0.5;exitDx=0;exitDy=0;" edge="1" parent="1" source="16" target="25"><mxGeometry width="100" height="100" relative="1" as="geometry"><mxPoint x="370" y="650" as="sourcePoint"/><mxPoint x="470" y="550" as="targetPoint"/></mxGeometry></mxCell><mxCell id="28" value="" style="edgeStyle=entityRelationEdgeStyle;fontSize=12;html=1;endArrow=ERmany;startArrow=ERmany;rounded=0;exitX=1.014;exitY=0.407;exitDx=0;exitDy=0;exitPerimeter=0;entryX=0;entryY=0.5;entryDx=0;entryDy=0;" edge="1" parent="1" source="Jl6ezpnLRALdIs5fdPDW-11" target="25"><mxGeometry width="100" height="100" relative="1" as="geometry"><mxPoint x="370" y="650" as="sourcePoint"/><mxPoint x="470" y="550" as="targetPoint"/></mxGeometry></mxCell></root></mxGraphModel></diagram></mxfile>